<svg width="26" height="26" viewBox="0 0 26 26" fill="none" xmlns="http://www.w3.org/2000/svg">
                <path d="M14.5305 24.5555H4.26046C3.98853 24.5642 3.71762 24.5182 3.46385 24.4201C3.21007 24.322 2.97861 24.1739 2.78322 23.9846C2.58783 23.7952 2.4325 23.5686 2.32647 23.318C2.22044 23.0674 2.16588 22.7981 2.16602 22.5261V3.50995C2.18671 2.95563 2.42646 2.43216 2.83266 2.0544C3.23885 1.67663 3.77832 1.47544 4.33268 1.49495H14.6027C14.8686 1.48899 15.1329 1.5371 15.3797 1.63634C15.6265 1.73559 15.8505 1.88392 16.0382 2.07233C16.226 2.26074 16.3735 2.48531 16.4719 2.73243C16.5702 2.97955 16.6174 3.24406 16.6105 3.50995V22.5261C16.6096 22.7966 16.5548 23.0642 16.4493 23.3134C16.3438 23.5625 16.1898 23.7881 15.9961 23.977C15.8025 24.166 15.5731 24.3144 15.3215 24.4138C15.0698 24.5131 14.8009 24.5613 14.5305 24.5555ZM4.26046 2.88884C4.17675 2.88595 4.0933 2.89982 4.01502 2.92965C3.93675 2.95947 3.86523 3.00465 3.80467 3.06252C3.74411 3.12039 3.69573 3.18978 3.66238 3.26662C3.62902 3.34346 3.61137 3.42619 3.61046 3.50995V22.5261C3.61046 22.6927 3.67666 22.8525 3.79449 22.9704C3.91233 23.0882 4.07215 23.1544 4.23879 23.1544H14.5305C14.7033 23.1567 14.8706 23.093 14.9981 22.9762C15.1256 22.8595 15.2037 22.6985 15.2166 22.5261V3.50995C15.202 3.33884 15.1231 3.17962 14.9958 3.06436C14.8684 2.94911 14.7022 2.88639 14.5305 2.88884H4.26046Z" fill="currentColor"></path>
                <path d="M21.327 24.5555C20.9932 24.5584 20.6622 24.4951 20.353 24.3694C20.0438 24.2436 19.7626 24.0579 19.5256 23.8229C19.2886 23.5879 19.1004 23.3082 18.972 23.0001C18.8437 22.692 18.7776 22.3615 18.7776 22.0278V16.6111C18.7776 16.228 18.6254 15.8606 18.3545 15.5897C18.0836 15.3188 17.7162 15.1667 17.3331 15.1667H16.3003C16.1088 15.1667 15.9251 15.0906 15.7897 14.9551C15.6542 14.8197 15.5781 14.636 15.5781 14.4444C15.5781 14.2529 15.6542 14.0692 15.7897 13.9337C15.9251 13.7983 16.1088 13.7222 16.3003 13.7222H17.3331C18.0993 13.7222 18.8341 14.0266 19.3759 14.5683C19.9176 15.1101 20.222 15.8449 20.222 16.6111V22.0278C20.222 22.3151 20.3362 22.5906 20.5393 22.7938C20.7425 22.997 21.018 23.1111 21.3053 23.1111C21.5927 23.1111 21.8682 22.997 22.0714 22.7938C22.2745 22.5906 22.3887 22.3151 22.3887 22.0278V12.4944L20.1281 7.43888C19.9931 7.15715 19.781 6.91944 19.5164 6.75328C19.2518 6.58712 18.9456 6.4993 18.6331 6.49999H18.1059C17.9144 6.49999 17.7307 6.4239 17.5952 6.28845C17.4598 6.15301 17.3837 5.96931 17.3837 5.77776C17.3837 5.58622 17.4598 5.40252 17.5952 5.26708C17.7307 5.13163 17.9144 5.05554 18.1059 5.05554H18.6331C19.2336 5.05523 19.8214 5.22904 20.3251 5.5559C20.8289 5.88277 21.2271 6.34868 21.4715 6.89721L23.7898 12.0683C23.8322 12.1613 23.8543 12.2622 23.8548 12.3644V22.0278C23.8548 22.6982 23.5885 23.3411 23.1144 23.8152C22.6404 24.2892 21.9974 24.5555 21.327 24.5555Z" fill="currentColor"></path>
                <path d="M12.9991 6.49999H5.77691C5.58536 6.49999 5.40166 6.4239 5.26622 6.28845C5.13078 6.15301 5.05469 5.96931 5.05469 5.77776C5.05469 5.58622 5.13078 5.40252 5.26622 5.26708C5.40166 5.13163 5.58536 5.05554 5.77691 5.05554H12.9991C13.1907 5.05554 13.3744 5.13163 13.5098 5.26708C13.6453 5.40252 13.7214 5.58622 13.7214 5.77776C13.7214 5.96931 13.6453 6.15301 13.5098 6.28845C13.3744 6.4239 13.1907 6.49999 12.9991 6.49999Z" fill="currentColor"></path>
                <path d="M12.9991 9.3889H5.77691C5.58536 9.3889 5.40166 9.31281 5.26622 9.17737C5.13078 9.04193 5.05469 8.85823 5.05469 8.66668C5.05469 8.47513 5.13078 8.29144 5.26622 8.15599C5.40166 8.02055 5.58536 7.94446 5.77691 7.94446H12.9991C13.1907 7.94446 13.3744 8.02055 13.5098 8.15599C13.6453 8.29144 13.7214 8.47513 13.7214 8.66668C13.7214 8.85823 13.6453 9.04193 13.5098 9.17737C13.3744 9.31281 13.1907 9.3889 12.9991 9.3889Z" fill="currentColor"></path>
                <path d="M18.0562 8.72443C17.8647 8.72443 17.681 8.64834 17.5455 8.5129C17.4101 8.37746 17.334 8.19376 17.334 8.00221V3.66888C17.334 3.47733 17.4101 3.29363 17.5455 3.15819C17.681 3.02275 17.8647 2.94666 18.0562 2.94666C18.2478 2.94666 18.4315 3.02275 18.5669 3.15819C18.7023 3.29363 18.7784 3.47733 18.7784 3.66888V8.00221C18.7784 8.19376 18.7023 8.37746 18.5669 8.5129C18.4315 8.64834 18.2478 8.72443 18.0562 8.72443Z" fill="currentColor"></path>
              </svg>