<svg xmlns="http://www.w3.org/2000/svg" width="31.335" height="33" viewBox="0 0 31.335 33">
  <g id="Seatbelts-Icon" transform="translate(-1.663)">
    <g id="Group_812" data-name="Group 812">
      <rect id="Rectangle_349" data-name="Rectangle 349" width="3.332" height="1.917" transform="matrix(0.799, -0.601, 0.601, 0.799, 19.975, 20.465)" fill="currentColor"/>
      <path id="Path_1203" data-name="Path 1203" d="M284.518,281.914l4.2-3.157a5.621,5.621,0,0,0-.242-3.887l-7.624,5.732A5.618,5.618,0,0,0,284.518,281.914Z" transform="translate(-261.86 -256.282)" fill="currentColor"/>
      <path id="Path_1204" data-name="Path 1204" d="M44.586,13.256,34.619,0H24.6L38.183,18.07Z" transform="translate(-22.934)" fill="currentColor"/>
      <path id="Path_1207" data-name="Path 1207" d="M346.143,340.535l-3.878,2.916,4.636,5.255a1.6,1.6,0,0,0,1.45.52L350,347.985a1.6,1.6,0,0,0-.1-1.537Z" transform="translate(-319.121 -317.508)" fill="currentColor"/>
      <path id="Path_1208" data-name="Path 1208" d="M408.52,283.233l-5.089-6.731a6.456,6.456,0,0,1,.107,3.895l3.853,6.057a2.145,2.145,0,0,1,.326,1.312l.18-.135A3.145,3.145,0,0,0,408.52,283.233Z" transform="translate(-376.151 -257.805)" fill="currentColor"/>
      <path id="Path_1209" data-name="Path 1209" d="M288.154,376.1l-4.749-5.383a6.455,6.455,0,0,1-3.712-1.184l5.053,6.758a3.141,3.141,0,0,0,4.4.623l.18-.135A2.144,2.144,0,0,1,288.154,376.1Z" transform="translate(-260.78 -344.543)" fill="currentColor"/>
      <path id="Path_1210" data-name="Path 1210" d="M229.416,198.5a.694.694,0,0,0,.138-.971l-1.373-1.826a.694.694,0,0,0-.971-.138l-7.295,5.484a.694.694,0,0,0-.138.971l1.373,1.826a.694.694,0,0,0,.971.138l7.295-5.484Z" transform="translate(-204.786 -182.208)" fill="currentColor"/>
    </g>
  </g>
</svg>
