<svg xmlns="http://www.w3.org/2000/svg" width="14.871" height="16.995" viewBox="0 0 14.871 16.995">
  <path id="Icon_fa-regular-user" data-name="Icon fa-regular-user" d="M10.091,4.249A2.656,2.656,0,1,0,7.436,6.9,2.656,2.656,0,0,0,10.091,4.249Zm-6.9,0A4.249,4.249,0,1,1,7.436,8.5,4.249,4.249,0,0,1,3.187,4.249ZM1.636,15.4h11.6a4.327,4.327,0,0,0-4.282-3.718H5.919A4.327,4.327,0,0,0,1.636,15.4ZM0,16.01a5.917,5.917,0,0,1,5.919-5.919H8.952a5.917,5.917,0,0,1,5.919,5.919.986.986,0,0,1-.986.986H.986A.986.986,0,0,1,0,16.01Z" fill="#00235d"></path>
</svg>