<svg width="26" height="26" viewBox="0 0 26 26" fill="none" xmlns="http://www.w3.org/2000/svg">
                <path d="M3.25 8.66667L6.19869 11.1239C6.39338 11.2862 6.63879 11.375 6.89222 11.375H19.1077C19.3612 11.375 19.6066 11.2862 19.8013 11.1239L22.75 8.66667M7.04167 15.1667H7.0525M18.9583 15.1667H18.9692M8.8407 4.875H17.1594C17.9369 4.875 18.6548 5.29162 19.0405 5.9667L22.1791 11.4592C22.5532 12.1139 22.75 12.8549 22.75 13.6092V20.0417C22.75 20.64 22.265 21.125 21.6667 21.125H20.5833C19.985 21.125 19.5 20.64 19.5 20.0417V18.9583H6.5V20.0417C6.5 20.64 6.01497 21.125 5.41667 21.125H4.33333C3.73503 21.125 3.25 20.64 3.25 20.0417V13.6092C3.25 12.8549 3.4468 12.1139 3.82095 11.4592L6.95951 5.9667C7.34526 5.29162 8.06317 4.875 8.8407 4.875ZM7.58333 15.1667C7.58333 15.4658 7.34082 15.7083 7.04167 15.7083C6.74252 15.7083 6.5 15.4658 6.5 15.1667C6.5 14.8676 6.74252 14.625 7.04167 14.625C7.34082 14.625 7.58333 14.8676 7.58333 15.1667ZM19.5 15.1667C19.5 15.4658 19.2574 15.7083 18.9583 15.7083C18.6592 15.7083 18.4167 15.4658 18.4167 15.1667C18.4167 14.8676 18.6592 14.625 18.9583 14.625C19.2574 14.625 19.5 14.8676 19.5 15.1667Z" stroke="currentColor" stroke-width="2" stroke-linecap="round" stroke-linejoin="round"></path>
              </svg>