<svg xmlns="http://www.w3.org/2000/svg" width="30" height="29.916" viewBox="0 0 30 29.916">
  <g id="Cab-Colour-Icon" transform="translate(0.004 -0.122)">
    <path id="Path_1214" data-name="Path 1214" d="M26.03,12.765c-1.1.991-2.125,2.089-3.294,3.01-.177.177-.461-.107-.248-.248,1.133-.956,2.161-2.019,3.259-3.046.177-.177.461.107.284.284ZM10.056,10.18c3.294,3.294,6.552,6.588,9.846,9.846a10.771,10.771,0,0,0,1.028-.708L10.8,9.189c-.248.319-.5.637-.744.991Zm-5.7,17.178a1.123,1.123,0,0,1-.814.319,1.1,1.1,0,0,1-.779-.319,1.133,1.133,0,0,1,0-1.629,1.1,1.1,0,0,1,.779-.319,1.123,1.123,0,0,1,.814.319,1.114,1.114,0,0,1,0,1.629ZM8.428,15.14a5.565,5.565,0,0,1-.284,4A6.946,6.946,0,0,1,5.31,21.55a13.006,13.006,0,0,0-3.967,2.657C.069,25.694-.64,27.678.776,29.307c1.665,1.487,3.967.461,5.383-.886a14.6,14.6,0,0,0,2.55-3.967,5.814,5.814,0,0,1,2.515-2.621,6.662,6.662,0,0,1,4.073-.107,5.032,5.032,0,0,0,3.01-.744c.389-.212.744-.425,1.1-.637-3.223-3.223-6.446-6.446-9.7-9.669a6.127,6.127,0,0,0-1.275,4.462Zm12.644.248c-.212.142-.389-.212-.177-.354a44.573,44.573,0,0,0,4.818-4.5c.177-.177.461.107.284.248a46.507,46.507,0,0,1-4.923,4.6Zm-1.736-1.736c1.594-1.594,3.259-3.117,4.853-4.711.177-.177.461.07.284.248-1.594,1.594-3.259,3.117-4.888,4.711a.176.176,0,1,1-.248-.248Zm-.956-2.019c.991-.991,1.948-2.019,2.94-3.01.177-.177.461.07.284.248-.991,1.028-1.984,2.054-2.975,3.046-.177.177-.425-.107-.248-.284Zm-1.948-.814c1.487-1.523,2.94-3.046,4.462-4.569.177-.177.425.107.248.284-1.487,1.487-2.94,3.046-4.462,4.534a.176.176,0,1,1-.248-.248Zm-1.7-1.31c.814-.814,1.665-1.594,2.48-2.408a.176.176,0,1,1,.248.248c-.814.814-1.629,1.629-2.48,2.443-.142.142-.425-.107-.248-.284ZM14.625,7.49C16.112,6,17.494,4.408,18.982,2.921c.177-.177.461.107.284.284-1.487,1.487-2.9,3.082-4.357,4.569-.177.177-.461-.107-.284-.284Zm11.157-.921L19.336.122c-.708.673-1.417,1.346-2.089,2.019a64.172,64.172,0,0,0-5.986,6.411c-.035.07-.07.107-.107.177l.035.035L21.426,19c3.117-2.373,5.809-5.455,8.571-8.217L26.03,6.817l-.248-.248Z" transform="translate(0)" fill="currentColor"/>
  </g>
</svg>
