<svg xmlns="http://www.w3.org/2000/svg" width="27.4" height="27.4" viewBox="0 0 27.4 27.4">
  <g id="Driver_Side" data-name="Driver Side" transform="translate(-1.999 -2)">
    <path id="Path_1187" data-name="Path 1187" d="M15.7,2A13.7,13.7,0,0,1,29.016,12.471a7.534,7.534,0,0,0-2.3-1.49,11.985,11.985,0,0,0-22.067.071,10.359,10.359,0,0,0-2.292,1.525A13.7,13.7,0,0,1,15.7,2Zm0,7.706a36.326,36.326,0,0,1,7.974.883c2.572.623,4.778,1.651,5.583,3.148a13.213,13.213,0,0,1,.027,3.684c-3.422.021-6.351.468-8.456,2.185-2.131,1.737-3.344,4.739-3.407,9.677a12.836,12.836,0,0,1-3.443,0c-.064-4.938-1.277-7.94-3.407-9.677-2.1-1.717-5.034-2.164-8.456-2.185A13.9,13.9,0,0,1,2,15.7a15.18,15.18,0,0,1,.143-1.918c.906-1.526,3.136-2.567,5.691-3.193A41.654,41.654,0,0,1,15.7,9.706ZM2.2,17.992c.6.006,1.187.017,1.748.054a12,12,0,0,0,9.383,9.41c.046.55.07,1.134.08,1.748A13.693,13.693,0,0,1,2.2,17.992Zm27.008,0A13.693,13.693,0,0,1,17.992,29.2c.01-.614.035-1.2.08-1.748a12,12,0,0,0,9.383-9.41c.561-.037,1.147-.048,1.748-.054Z" fill="#202020"/>
  </g>
</svg>
