<svg id="First-Registered-Icon" xmlns="http://www.w3.org/2000/svg" xmlns:xlink="http://www.w3.org/1999/xlink" width="25.499" height="23.808" viewBox="0 0 25.499 23.808">
  <defs>
    <clipPath id="clip-path">
      <rect id="Rectangle_351" data-name="Rectangle 351" width="25.499" height="23.808" transform="translate(0 0)" fill="currentColor"/>
    </clipPath>
  </defs>
  <g id="Group_817" data-name="Group 817" clip-path="url(#clip-path)">
    <path id="Path_1221" data-name="Path 1221" d="M4.116,6.711a.839.839,0,0,0,0,1.677H10.7a.839.839,0,0,0,0-1.677Z" fill="currentColor"/>
    <path id="Path_1222" data-name="Path 1222" d="M7.406,21.815H4.116a2.651,2.651,0,0,1-2.468-2.8V4.47a2.651,2.651,0,0,1,2.468-2.8H18.924a2.651,2.651,0,0,1,2.468,2.8v1.4a.822.822,0,1,0,1.644,0v-1.4A4.309,4.309,0,0,0,18.923,0H4.116A4.309,4.309,0,0,0,0,4.472v14.55a4.31,4.31,0,0,0,4.113,4.472h3.29a.839.839,0,0,0,0-1.679" fill="currentColor"/>
    <path id="Path_1223" data-name="Path 1223" d="M3.3,7.549Z" fill="currentColor"/>
    <path id="Path_1224" data-name="Path 1224" d="M20.969,16.158a5.049,5.049,0,0,0,2.064-4.077c0-.046,0-.093,0-.14a4.935,4.935,0,0,0-9.869.14,5.049,5.049,0,0,0,2.064,4.077,8.391,8.391,0,0,0-4.534,6.828.822.822,0,0,0,.822.822H24.627l-.005-.011a.535.535,0,0,0,.055.011.822.822,0,0,0,.822-.822,8.372,8.372,0,0,0-4.53-6.828m-8.124,4.821-.068.144c.021-.048.046-.1.068-.144" fill="currentColor"/>
    <path id="Path_1225" data-name="Path 1225" d="M9.05,11.744H4.116a.84.84,0,0,0,0,1.679H9.05a.84.84,0,0,0,0-1.679" fill="currentColor"/>
  </g>
</svg>
