<svg width="26" height="26" viewBox="0 0 26 26" fill="none" xmlns="http://www.w3.org/2000/svg">
                <path d="M12.9998 3.80554C5.83162 3.80554 0 9.63751 0 16.8057C0 17.8033 0.11375 18.798 0.338559 19.7626C0.364406 19.8733 0.394062 19.976 0.427172 20.071C0.818898 21.3239 1.99875 22.1945 3.31485 22.1945H22.681C23.905 22.1945 25.0092 21.4437 25.474 20.3319C25.5302 20.2212 25.577 20.0984 25.6128 19.9614C25.6265 19.9093 25.6478 19.8223 25.6797 19.6807C25.8919 18.7424 26 17.7744 26 16.8056C26 9.63752 20.168 3.80554 12.9998 3.80554ZM24.1598 19.3381C24.1077 19.569 24.091 19.6245 24.0872 19.6245L24.0906 19.5777C23.9088 20.2049 23.3341 20.6366 22.681 20.6366H3.31485C2.66327 20.6366 2.09005 20.2072 1.90673 19.5819L1.9174 19.6538C1.91511 19.6538 1.90064 19.6017 1.85575 19.4092C1.661 18.5728 1.55792 17.7014 1.55792 16.8057C1.55792 10.4861 6.68058 5.36346 12.9998 5.36346C19.319 5.36346 24.442 10.4861 24.442 16.8057C24.4421 17.676 24.3443 18.5234 24.1598 19.3381Z" fill="currentColor"></path>
                <path d="M13.5872 15.0926C13.4027 15.0294 13.2053 14.9933 12.9995 14.9933C11.9988 14.9933 11.1875 15.8046 11.1875 16.8057C11.1875 17.8064 11.9988 18.6176 12.9995 18.6176C13.9154 18.6176 14.6708 17.9376 14.7925 17.0552C14.8039 16.973 14.8115 16.8905 14.8115 16.8057C14.8115 16.0107 14.2992 15.3367 13.5872 15.0926Z" fill="currentColor"></path>
                <path d="M20.2971 9.89159C20.1378 9.71934 19.8498 9.71548 19.6239 9.88245L13.3477 14.5037C13.4846 14.5247 13.6208 14.557 13.7546 14.603C14.5655 14.8815 15.1463 15.5771 15.292 16.3998L20.2579 10.5644C20.4409 10.3499 20.4576 10.062 20.2971 9.89159Z" fill="currentColor"></path>
                <path d="M17.287 9.28835C17.5685 9.45156 17.9282 9.35452 18.091 9.07309C18.2539 8.7912 18.1572 8.43142 17.8758 8.26826C17.5943 8.10626 17.2337 8.20285 17.071 8.48392C16.9089 8.76611 17.0047 9.12631 17.287 9.28835Z" fill="currentColor"></path>
                <path d="M13.1649 8.18456C13.4905 8.18456 13.7537 7.9202 13.7537 7.59576C13.7537 7.2702 13.4905 7.00659 13.1649 7.00659C12.8401 7.00659 12.5762 7.2702 12.5762 7.59576C12.5762 7.9202 12.8401 8.18456 13.1649 8.18456Z" fill="currentColor"></path>
                <path d="M3.86804 16.2957C3.52648 16.2957 3.24805 16.5733 3.24805 16.9156C3.24805 17.258 3.52643 17.5349 3.86804 17.5349C4.21035 17.5349 4.48726 17.258 4.48726 16.9156C4.48726 16.5733 4.21035 16.2957 3.86804 16.2957Z" fill="currentColor"></path>
                <path d="M5.81114 11.5005C5.52971 11.3377 5.16911 11.4351 5.00631 11.7166C4.84432 11.998 4.9409 12.3578 5.22157 12.521C5.50381 12.6838 5.86436 12.5868 6.02716 12.3053C6.18921 12.0238 6.09262 11.6634 5.81114 11.5005Z" fill="currentColor"></path>
                <path d="M8.4547 8.26829C8.17245 8.43145 8.07663 8.79123 8.23943 9.07312C8.40148 9.35455 8.76202 9.45159 9.0435 9.28838C9.32498 9.12639 9.42157 8.76539 9.25953 8.48396C9.09677 8.20283 8.73618 8.10625 8.4547 8.26829Z" fill="currentColor"></path>
                <path d="M20.517 11.5005C20.2356 11.6634 20.139 12.0239 20.3018 12.3054C20.4646 12.5876 20.8244 12.6839 21.1066 12.521C21.388 12.3579 21.4847 11.9981 21.3218 11.7166C21.1598 11.4351 20.7992 11.3377 20.517 11.5005Z" fill="currentColor"></path>
                <path d="M21.995 17.0149C22.3206 17.0149 22.5838 16.7516 22.5838 16.4265C22.5838 16.1009 22.3206 15.8369 21.995 15.8369C21.6695 15.8369 21.4062 16.1009 21.4062 16.4265C21.4062 16.7516 21.6695 17.0149 21.995 17.0149Z" fill="currentColor"></path>
              </svg>