<svg xmlns="http://www.w3.org/2000/svg" width="32.875" height="25.942" viewBox="0 0 32.875 25.942">
  <g id="Registered_Keepers" data-name="Registered Keepers" transform="translate(-2.5 -9.627)">
    <path id="Path_1155" data-name="Path 1155" d="M35.04,60.994c-3.095-1.768-8,5.277-15.538,5.277-.37,0-1.542,0-2.161,0a.387.387,0,0,1-.389-.392s0-.007,0-.011a.388.388,0,0,1,.407-.383,18.532,18.532,0,0,0,5.78-.574,2.454,2.454,0,0,0,1.414-.994,2.008,2.008,0,0,0,.216-1.532c-.154-.54-.524-1.247-1.986-1.134a26.7,26.7,0,0,1-7.129-.373l-.047-.009c-2.114-.371-4.238-.944-6.059.138C8.884,61.4,2.524,65.02,2.5,65.031l4.084,7.441c.009-.006.017-.014.027-.019l2.208-1.287a5.09,5.09,0,0,1,3.708-.568l1.346.306c4.167,1.066,5.886,1.505,8.547.677,3.457-1.077,8.208-4.8,12.73-9.259C35.4,62.071,35.532,61.276,35.04,60.994Z" transform="translate(0 -36.903)" fill="currentColor"/>
    <path id="Path_1156" data-name="Path 1156" d="M2.121,6.169h.3V7.811l.582.589V13.73l.89.868V7.535a.208.208,0,1,1,.416,0v7.08a.206.206,0,0,1-.006.047L5.5,13.587v-.923l-.292-.216v-.562l.506-.673v-.426l-.543-.467V9.758l.479-.71-.55-.6V7.811h.73V6.169h.3A2.121,2.121,0,0,0,8.255,4.048V2.121A2.121,2.121,0,0,0,6.134,0H2.121A2.121,2.121,0,0,0,0,2.121V4.048A2.121,2.121,0,0,0,2.121,6.169Zm.9-4.97H5.237a.73.73,0,0,1,0,1.459H3.018a.73.73,0,0,1,0-1.459Z" transform="translate(25.938 9.627) rotate(73)" fill="currentColor"/>
    <path id="Path_1157" data-name="Path 1157" d="M56.622,59.168h-.006l0,0Z" transform="translate(-35.389 -36.111)" fill="currentColor"/>
  </g>
</svg>
