<svg xmlns="http://www.w3.org/2000/svg" width="20.593" height="27.779" viewBox="0 0 20.593 27.779">
  <g id="Service-History-Icon" transform="translate(-10.55 -2.995)">
    <g id="Group_843" data-name="Group 843" transform="translate(10.55 2.995)">
      <path id="Path_1230" data-name="Path 1230" d="M10.55,6.144V30.3a.479.479,0,0,0,.479.479H30.664a.479.479,0,0,0,.479-.479V6.144a.479.479,0,0,0-.479-.479H24.606V4.616a.479.479,0,0,0-.177-.369,5.819,5.819,0,0,0-7.212,0,.479.479,0,0,0-.177.369V5.679H11.015A.479.479,0,0,0,10.55,6.144Zm.924.479h5.565v.958a.479.479,0,0,0,.479.479h6.623a.479.479,0,0,0,.479-.479V6.623h5.55V29.845H11.493Z" transform="translate(-10.55 -2.995)" fill="currentColor"/>
      <path id="Path_1231" data-name="Path 1231" d="M30.819,14.69H15.849a.479.479,0,0,0-.479.479V33.487a.479.479,0,0,0,.479.479H30.819a.479.479,0,0,0,.479-.479V15.15A.479.479,0,0,0,30.819,14.69ZM21.16,29.847a.479.479,0,0,1-.479.479H18.066a.479.479,0,0,1-.479-.479V27.2a.479.479,0,0,1,.479-.479H20.7a.479.479,0,0,1,.479.479Zm0-4.693a.479.479,0,0,1-.479.479H18.066a.479.479,0,0,1-.479-.479V22.5a.479.479,0,0,1,.479-.479H20.7a.479.479,0,0,1,.479.479Zm0-4.693a.479.479,0,0,1-.479.479H18.066a.479.479,0,0,1-.479-.479V17.822a.479.479,0,0,1,.479-.479H20.7a.479.479,0,0,1,.479.479Zm7.48,9.851H22.3a.479.479,0,0,1,0-.924H28.64a.479.479,0,0,1,0,.924Zm0-4.693H22.3a.479.479,0,0,1,0-.924H28.64a.479.479,0,0,1,0,.924Zm0-4.693H22.3a.479.479,0,0,1,0-.924H28.64a.479.479,0,0,1,0,.924Z" transform="translate(-13.062 -9.089)" fill="currentColor"/>
      <rect id="Rectangle_359" data-name="Rectangle 359" width="1.714" height="1.719" transform="translate(5.459 18.579)" fill="currentColor"/>
      <rect id="Rectangle_360" data-name="Rectangle 360" width="1.714" height="1.714" transform="translate(5.459 13.89)" fill="currentColor"/>
      <rect id="Rectangle_361" data-name="Rectangle 361" width="1.714" height="1.714" transform="translate(5.459 9.197)" fill="currentColor"/>
    </g>
  </g>
</svg>
