<svg xmlns="http://www.w3.org/2000/svg" width="35" height="17.981" viewBox="0 0 35 17.981">
  <g id="Wheelbase-Icon" transform="translate(-536.499 -368.658)">
    <g id="Group_842" data-name="Group 842" transform="translate(-245.197 -26.587)">
      <g id="noun-wheel-7656241" transform="translate(803.366 399.897)">
        <g id="Group_839" data-name="Group 839" transform="translate(0 0)">
          <path id="Path_1229" data-name="Path 1229" d="M16.325,19.489a8.618,8.618,0,0,1-.664-1.85c-.126-.6-.078-1.034.174-1.16s.626.094,1.031.554a8.6,8.6,0,0,1,1.08,1.633,4.468,4.468,0,0,0,1.09-1.265,8.68,8.68,0,0,1-1.775-.837c-.513-.335-.785-.675-.7-.942s.51-.377,1.122-.338a8.64,8.64,0,0,1,1.923.392,4.475,4.475,0,0,0-.107-1.635,8.643,8.643,0,0,1-1.84.658c-.6.125-1.03.076-1.156-.175s.1-.628.557-1.035a8.662,8.662,0,0,1,1.643-1.085A4.475,4.475,0,0,0,17.4,11.253a8.68,8.68,0,0,1-.837,1.775c-.335.513-.675.785-.942.7s-.377-.51-.338-1.122a8.64,8.64,0,0,1,.392-1.923,4.473,4.473,0,0,0-1.716.129,8.662,8.662,0,0,1,.665,1.85c.126.6.078,1.034-.174,1.161s-.626-.094-1.031-.554a8.627,8.627,0,0,1-1.08-1.633,4.474,4.474,0,0,0-1.085,1.261,8.68,8.68,0,0,1,1.775.837c.513.335.785.675.7.942s-.51.377-1.122.338a8.64,8.64,0,0,1-1.923-.392,4.484,4.484,0,0,0,.084,1.539,8.545,8.545,0,0,1,1.828-.651c.6-.124,1.024-.075,1.149.176s-.1.631-.562,1.038a8.709,8.709,0,0,1-1.656,1.09,4.473,4.473,0,0,0,1.371,1.23,8.68,8.68,0,0,1,.837-1.775c.335-.513.675-.785.942-.7s.377.51.338,1.122a8.64,8.64,0,0,1-.392,1.923,4.481,4.481,0,0,0,1.71-.127Zm1.665-.507-.016.011a4.788,4.788,0,0,1-1.4.712l-.017.005a4.75,4.75,0,0,1-2.131.159l-.02,0a4.826,4.826,0,0,1-1.492-.5l-.019-.01A4.751,4.751,0,0,1,11.2,17.848a.138.138,0,0,1-.011-.016,4.861,4.861,0,0,1-.32-.546,4.774,4.774,0,0,1-.34-.89.018.018,0,0,1,0-.006,4.742,4.742,0,0,1-.11-1.963.1.1,0,0,1,0-.019,4.843,4.843,0,0,1,.187-.767,4.789,4.789,0,0,1,.309-.725.133.133,0,0,1,.01-.019,4.752,4.752,0,0,1,1.36-1.579l.016-.011a4.807,4.807,0,0,1,1.4-.713l.017-.005a4.742,4.742,0,0,1,2.137-.161l.019,0a4.826,4.826,0,0,1,.767.187h0a4.782,4.782,0,0,1,.724.309l.019.01a4.746,4.746,0,0,1,1.63,1.43.138.138,0,0,1,.011.016,4.876,4.876,0,0,1,.377.628,4.823,4.823,0,0,1,.31.786.173.173,0,0,1,.005.017,4.738,4.738,0,0,1,.135,2.055.114.114,0,0,1,0,.019,4.822,4.822,0,0,1-.5,1.492.132.132,0,0,1-.01.019,4.752,4.752,0,0,1-1.364,1.583Zm-7.168-8.907a6.7,6.7,0,0,1,1.213-.821l.18.359a.138.138,0,0,0,.248-.124l-.18-.359a6.685,6.685,0,0,1,1.384-.48l.081.394a.138.138,0,1,0,.271-.055l-.081-.4A6.594,6.594,0,0,1,15.4,8.489l-.024.4a.139.139,0,0,0,.277.016l.024-.4a6.721,6.721,0,0,1,1.438.278l-.127.382a.138.138,0,0,0,.263.087l.127-.382a6.678,6.678,0,0,1,1.319.638l-.223.338A.138.138,0,1,0,18.7,10l.223-.338a6.6,6.6,0,0,1,1.107.959l-.3.269a.138.138,0,1,0,.183.207l.3-.269a6.7,6.7,0,0,1,.821,1.213l-.361.181a.138.138,0,1,0,.124.248l.361-.181a6.69,6.69,0,0,1,.48,1.384l-.4.082a.138.138,0,1,0,.055.271l.4-.082a6.6,6.6,0,0,1,.105,1.462l-.406-.024a.139.139,0,1,0-.016.277l.405.024a6.677,6.677,0,0,1-.278,1.438l-.384-.127a.138.138,0,1,0-.087.263l.383.127A6.68,6.68,0,0,1,20.78,18.7l-.339-.224a.138.138,0,1,0-.152.231l.339.223a6.607,6.607,0,0,1-.96,1.107l-.269-.3a.138.138,0,1,0-.207.183l.269.3a6.7,6.7,0,0,1-1.214.821l-.181-.361a.138.138,0,0,0-.248.124l.181.361a6.664,6.664,0,0,1-1.384.48l-.082-.4a.138.138,0,1,0-.271.055l.082.4a6.632,6.632,0,0,1-1.461.1l.024-.4a.139.139,0,1,0-.277-.016l-.024.4a6.635,6.635,0,0,1-1.438-.279l.127-.382a.138.138,0,0,0-.263-.087l-.127.382a6.68,6.68,0,0,1-1.319-.639l.222-.337a.138.138,0,0,0-.231-.152l-.222.337a6.6,6.6,0,0,1-1.107-.96l.3-.267a.138.138,0,0,0-.183-.207l-.3.267a6.7,6.7,0,0,1-.82-1.213l.359-.18a.138.138,0,1,0-.124-.248l-.359.18a6.683,6.683,0,0,1-.48-1.384l.393-.081a.138.138,0,0,0-.055-.271l-.394.081a6.665,6.665,0,0,1-.105-1.46l.4.024a.139.139,0,1,0,.016-.277l-.4-.024a6.671,6.671,0,0,1,.278-1.438l.381.127a.138.138,0,1,0,.087-.263l-.381-.127A6.655,6.655,0,0,1,9.5,11.6l.336.221a.138.138,0,1,0,.152-.231l-.336-.221a6.6,6.6,0,0,1,.959-1.107l.267.3a.138.138,0,0,0,.207-.183l-.267-.3ZM15.938,15.2a.826.826,0,0,1-.039.2.8.8,0,0,1-.873.537l.219-.66.692-.075Zm-1.28-.686a.751.751,0,0,1,.128-.08.8.8,0,0,1,1.122.49L15.19,15Zm-.314-.085.007-.008.007-.007a1.075,1.075,0,0,1,1.109-.29.136.136,0,0,1,.027.009,1.075,1.075,0,0,1,.714.89s0,.006,0,.009,0,.006,0,.008a1.074,1.074,0,0,1-1.393,1.131.135.135,0,0,1-.027-.009,1.074,1.074,0,0,1-.671-1.339.136.136,0,0,1,.009-.027,1.073,1.073,0,0,1,.216-.366Zm.639.759-.219.66a.8.8,0,0,1-.377-.953.819.819,0,0,1,.084-.177l.513.47Z" transform="translate(-8.478 -8.484)" fill="currentColor" fill-rule="evenodd"/>
        </g>
      </g>
      <g id="noun-wheel-7656241-2" data-name="noun-wheel-7656241" transform="translate(781.696 399.897)">
        <g id="Group_839-2" data-name="Group 839" transform="translate(0 0)">
          <path id="Path_1229-2" data-name="Path 1229" d="M16.325,19.489a8.618,8.618,0,0,1-.664-1.85c-.126-.6-.078-1.034.174-1.16s.626.094,1.031.554a8.6,8.6,0,0,1,1.08,1.633,4.468,4.468,0,0,0,1.09-1.265,8.68,8.68,0,0,1-1.775-.837c-.513-.335-.785-.675-.7-.942s.51-.377,1.122-.338a8.64,8.64,0,0,1,1.923.392,4.475,4.475,0,0,0-.107-1.635,8.643,8.643,0,0,1-1.84.658c-.6.125-1.03.076-1.156-.175s.1-.628.557-1.035a8.662,8.662,0,0,1,1.643-1.085A4.475,4.475,0,0,0,17.4,11.253a8.68,8.68,0,0,1-.837,1.775c-.335.513-.675.785-.942.7s-.377-.51-.338-1.122a8.64,8.64,0,0,1,.392-1.923,4.473,4.473,0,0,0-1.716.129,8.662,8.662,0,0,1,.665,1.85c.126.6.078,1.034-.174,1.161s-.626-.094-1.031-.554a8.627,8.627,0,0,1-1.08-1.633,4.474,4.474,0,0,0-1.085,1.261,8.68,8.68,0,0,1,1.775.837c.513.335.785.675.7.942s-.51.377-1.122.338a8.64,8.64,0,0,1-1.923-.392,4.484,4.484,0,0,0,.084,1.539,8.545,8.545,0,0,1,1.828-.651c.6-.124,1.024-.075,1.149.176s-.1.631-.562,1.038a8.709,8.709,0,0,1-1.656,1.09,4.473,4.473,0,0,0,1.371,1.23,8.68,8.68,0,0,1,.837-1.775c.335-.513.675-.785.942-.7s.377.51.338,1.122a8.64,8.64,0,0,1-.392,1.923,4.481,4.481,0,0,0,1.71-.127Zm1.665-.507-.016.011a4.788,4.788,0,0,1-1.4.712l-.017.005a4.75,4.75,0,0,1-2.131.159l-.02,0a4.826,4.826,0,0,1-1.492-.5l-.019-.01A4.751,4.751,0,0,1,11.2,17.848a.138.138,0,0,1-.011-.016,4.861,4.861,0,0,1-.32-.546,4.774,4.774,0,0,1-.34-.89.018.018,0,0,1,0-.006,4.742,4.742,0,0,1-.11-1.963.1.1,0,0,1,0-.019,4.843,4.843,0,0,1,.187-.767,4.789,4.789,0,0,1,.309-.725.133.133,0,0,1,.01-.019,4.752,4.752,0,0,1,1.36-1.579l.016-.011a4.807,4.807,0,0,1,1.4-.713l.017-.005a4.742,4.742,0,0,1,2.137-.161l.019,0a4.826,4.826,0,0,1,.767.187h0a4.782,4.782,0,0,1,.724.309l.019.01a4.746,4.746,0,0,1,1.63,1.43.138.138,0,0,1,.011.016,4.876,4.876,0,0,1,.377.628,4.823,4.823,0,0,1,.31.786.173.173,0,0,1,.005.017,4.738,4.738,0,0,1,.135,2.055.114.114,0,0,1,0,.019,4.822,4.822,0,0,1-.5,1.492.132.132,0,0,1-.01.019,4.752,4.752,0,0,1-1.364,1.583Zm-7.168-8.907a6.7,6.7,0,0,1,1.213-.821l.18.359a.138.138,0,0,0,.248-.124l-.18-.359a6.685,6.685,0,0,1,1.384-.48l.081.394a.138.138,0,1,0,.271-.055l-.081-.4A6.594,6.594,0,0,1,15.4,8.489l-.024.4a.139.139,0,0,0,.277.016l.024-.4a6.721,6.721,0,0,1,1.438.278l-.127.382a.138.138,0,0,0,.263.087l.127-.382a6.678,6.678,0,0,1,1.319.638l-.223.338A.138.138,0,1,0,18.7,10l.223-.338a6.6,6.6,0,0,1,1.107.959l-.3.269a.138.138,0,1,0,.183.207l.3-.269a6.7,6.7,0,0,1,.821,1.213l-.361.181a.138.138,0,1,0,.124.248l.361-.181a6.69,6.69,0,0,1,.48,1.384l-.4.082a.138.138,0,1,0,.055.271l.4-.082a6.6,6.6,0,0,1,.105,1.462l-.406-.024a.139.139,0,1,0-.016.277l.405.024a6.677,6.677,0,0,1-.278,1.438l-.384-.127a.138.138,0,1,0-.087.263l.383.127A6.68,6.68,0,0,1,20.78,18.7l-.339-.224a.138.138,0,1,0-.152.231l.339.223a6.607,6.607,0,0,1-.96,1.107l-.269-.3a.138.138,0,1,0-.207.183l.269.3a6.7,6.7,0,0,1-1.214.821l-.181-.361a.138.138,0,0,0-.248.124l.181.361a6.664,6.664,0,0,1-1.384.48l-.082-.4a.138.138,0,1,0-.271.055l.082.4a6.632,6.632,0,0,1-1.461.1l.024-.4a.139.139,0,1,0-.277-.016l-.024.4a6.635,6.635,0,0,1-1.438-.279l.127-.382a.138.138,0,0,0-.263-.087l-.127.382a6.68,6.68,0,0,1-1.319-.639l.222-.337a.138.138,0,0,0-.231-.152l-.222.337a6.6,6.6,0,0,1-1.107-.96l.3-.267a.138.138,0,0,0-.183-.207l-.3.267a6.7,6.7,0,0,1-.82-1.213l.359-.18a.138.138,0,1,0-.124-.248l-.359.18a6.683,6.683,0,0,1-.48-1.384l.393-.081a.138.138,0,0,0-.055-.271l-.394.081a6.665,6.665,0,0,1-.105-1.46l.4.024a.139.139,0,1,0,.016-.277l-.4-.024a6.671,6.671,0,0,1,.278-1.438l.381.127a.138.138,0,1,0,.087-.263l-.381-.127A6.655,6.655,0,0,1,9.5,11.6l.336.221a.138.138,0,1,0,.152-.231l-.336-.221a6.6,6.6,0,0,1,.959-1.107l.267.3a.138.138,0,0,0,.207-.183l-.267-.3ZM15.938,15.2a.826.826,0,0,1-.039.2.8.8,0,0,1-.873.537l.219-.66.692-.075Zm-1.28-.686a.751.751,0,0,1,.128-.08.8.8,0,0,1,1.122.49L15.19,15Zm-.314-.085.007-.008.007-.007a1.075,1.075,0,0,1,1.109-.29.136.136,0,0,1,.027.009,1.075,1.075,0,0,1,.714.89s0,.006,0,.009,0,.006,0,.008a1.074,1.074,0,0,1-1.393,1.131.135.135,0,0,1-.027-.009,1.074,1.074,0,0,1-.671-1.339.136.136,0,0,1,.009-.027,1.073,1.073,0,0,1,.216-.366Zm.639.759-.219.66a.8.8,0,0,1-.377-.953.819.819,0,0,1,.084-.177l.513.47Z" transform="translate(-8.478 -8.484)" fill="currentColor" fill-rule="evenodd"/>
        </g>
      </g>
      <g id="Group_840" data-name="Group 840" transform="translate(788.361 395.245)">
        <line id="Line_109" data-name="Line 109" x2="20.619" transform="translate(0.423 1.471)" fill="none" stroke="currentColor" stroke-width="1"/>
        <path id="Polygon_3" data-name="Polygon 3" d="M1.471,0,2.941,1.132H0Z" transform="translate(0 2.941) rotate(-90)" fill="currentColor"/>
        <path id="Polygon_4" data-name="Polygon 4" d="M1.471,0,2.941,1.132H0Z" transform="translate(21.67 0) rotate(90)" fill="currentColor"/>
      </g>
    </g>
    <line id="Line_160" data-name="Line 160" x2="7" transform="translate(550.5 379.5)" fill="none" stroke="currentColor" stroke-width="1"/>
  </g>
</svg>
